<svg xmlns="http://www.w3.org/2000/svg" width="146.539" height="32.61" viewBox="0 0 146.539 32.61">
  <g id="Logo" transform="translate(0 0)">
    <path id="path1594" d="M7.556,5H4.135V-26.154H5.589L6.814-23.09a7.963,7.963,0,0,1,2.7-2.764A6.833,6.833,0,0,1,13.15-26.88h0q4.951,0,6.313,3.506h0A7.122,7.122,0,0,1,25.63-26.88h0q6.91,0,6.91,6.72h0V5H29.1V-20.161Q29.1-24,25.584-24h0a5.479,5.479,0,0,0-3.8,1.626A4.521,4.521,0,0,0,20.037-19.2h0V5H16.616V-20.161Q16.616-24,13.1-24h0a5.6,5.6,0,0,0-3.8,1.558,4.316,4.316,0,0,0-1.745,3.1h0ZM41.08-.99h0v-19.17a6.134,6.134,0,0,1,2.081-4.967q2.081-1.753,6.214-1.753t6.244,1.753a6.1,6.1,0,0,1,2.1,4.967h0V-.99a6.125,6.125,0,0,1-2.081,4.959q-2.081,1.76-6.221,1.76t-6.237-1.76A6.094,6.094,0,0,1,41.08-.99ZM44.5-20.161V-.99q0,3.836,4.9,3.836T54.3-.99h0v-19.17Q54.3-24,49.4-24t-4.9,3.843ZM70.2,5H66.784V-26.154h1.462l1.431,3.528q1.584-4.255,5-4.255h0q5.839,0,5.816,6.225h0v3.116H77.214v-3.3q0-3.161-2.7-3.161h0a3.737,3.737,0,0,0-2.969,1.828A8.817,8.817,0,0,0,70.2-16.909h0ZM85.631-.99h0v-19.17a6.134,6.134,0,0,1,2.081-4.967q2.074-1.753,6.214-1.753t6.244,1.753a6.1,6.1,0,0,1,2.1,4.967h0V-.99a6.125,6.125,0,0,1-2.081,4.959q-2.081,1.76-6.221,1.76t-6.237-1.76A6.094,6.094,0,0,1,85.631-.99Zm3.421-19.17V-.99q0,3.836,4.9,3.836T98.854-.99h0v-19.17Q98.854-24,93.949-24t-4.9,3.843ZM115.589,5,108.4-26.154h3.421L118.13,1.3l6.382-27.456h3.421L120.732,5ZM134.268-.99h0V-26.154h3.443V-.99a4.427,4.427,0,0,0,.8,2.832,3.6,3.6,0,0,0,2.954,1,5.821,5.821,0,0,0,3.964-1.626,4.464,4.464,0,0,0,1.821-3.169h0v-24.2h3.421V5h-1.462l-1.27-3.064a8.226,8.226,0,0,1-2.77,2.757,6.992,6.992,0,0,1-3.7,1.034h0Q134.268,5.729,134.268-.99Z" transform="translate(-4.135 26.88)" fill="#fff"/>
  </g>
</svg>
